<?xml version="1.0" encoding="UTF-8" standalone="no"?>
<!DOCTYPE svg PUBLIC "-//W3C//DTD SVG 1.1//EN" "http://www.w3.org/Graphics/SVG/1.1/DTD/svg11.dtd">
<svg width="100%" height="100%" viewBox="0 0 128 128" version="1.1" xmlns="http://www.w3.org/2000/svg" xmlns:xlink="http://www.w3.org/1999/xlink" xml:space="preserve" xmlns:serif="http://www.serif.com/" style="fill-rule:evenodd;clip-rule:evenodd;stroke-linejoin:round;stroke-miterlimit:2;">
    <g transform="matrix(1.40733,0,0,1.40733,-37.6097,-2.27259)">
        <circle cx="72.2" cy="47.091" r="42.634" style="fill:url(#_Linear1);"/>
    </g>
    <g transform="matrix(0.896713,0,0,0.896713,10.289,5.37014)">
        <path d="M10.143,81.938C17.064,106.782 34.455,121.142 59.978,121.142C91.583,121.142 110.788,101.446 117.809,73.453C110.073,81.712 101.1,86.878 89.722,86.034C105.063,75.792 116.521,64.599 106.301,48.097C102.766,59.116 92.107,62.365 79.97,64C83.195,39.962 79.891,19.345 55.784,9.624C61.735,17.047 63.584,23.689 58.612,29.031C47.384,38.514 37.078,44.472 35.207,57.898C34.685,61.638 36.217,66.535 38.912,69.601C26.468,61.592 24.655,51.259 32.183,38.881C12.182,53.063 11.758,74.078 28.087,92.422C19.974,89.937 14.303,86.295 10.143,81.938ZM40.155,107.243C41.297,113.994 50.011,119.358 60.777,119.276C76.53,119.157 82.452,114.44 82.448,109.29C82.446,107.126 81.444,104.754 79.813,102.599C78.85,101.325 78.078,98.51 77.931,96.186C77.709,92.689 80.526,88.673 84.295,86.471C77.27,86.816 71.814,89.287 69.016,95.359C69.714,89.649 68.439,84.789 63.274,81.602C58.301,78.534 62.785,73.96 65.92,69.968C60.064,69.554 48.902,76.501 48.943,81.702C48.961,83.886 50.449,85.26 51.867,86.291C53.612,87.559 55.149,90.074 55.185,91.789C55.264,95.517 53.523,97.779 51.34,99.378C52.245,93.878 46.387,90.617 38.957,91.439C45.049,93.124 47.104,97.808 43.251,102.774L40.155,107.243Z"/>
    </g>
    <path d="M74.916,4L53.799,53.172L86.463,42.145L52.03,118.032L68.364,60.885L29.401,74.488L74.916,4Z" style="fill:none;"/>
    <defs>
        <linearGradient id="_Linear1" x1="0" y1="0" x2="1" y2="0" gradientUnits="userSpaceOnUse" gradientTransform="matrix(74.4423,77.2769,-77.2769,74.4423,43.2342,15.2903)"><stop offset="0" style="stop-color:rgb(245,43,78);stop-opacity:1"/><stop offset="1" style="stop-color:rgb(255,0,115);stop-opacity:1"/></linearGradient>
    </defs>
</svg>
